<mxfile><diagram id="WYq8GOCfq9GIUAZUDXxE" name="Page-1"><mxGraphModel dx="2724" dy="3817" grid="1" gridSize="10" guides="1" tooltips="1" connect="1" arrows="1" fold="1" page="1" pageScale="1" pageWidth="827" pageHeight="1169" math="0" shadow="0"><root><mxCell id="0"/><mxCell id="1" parent="0"/><mxCell id="7" value="" style="edgeStyle=none;html=1;fontSize=14;" parent="1" source="4" target="6" edge="1"><mxGeometry relative="1" as="geometry"/></mxCell><mxCell id="4" value="&lt;font style=&quot;font-size: 14px&quot;&gt;Preprocess&lt;/font&gt;" style="rounded=1;whiteSpace=wrap;html=1;absoluteArcSize=1;arcSize=14;strokeWidth=2;" parent="1" vertex="1"><mxGeometry x="540" y="-644" width="120" height="40" as="geometry"/></mxCell><mxCell id="21" value="" style="edgeStyle=none;html=1;fontSize=14;" parent="1" edge="1"><mxGeometry relative="1" as="geometry"><mxPoint x="600.0000000000002" y="-425.0000000000002" as="sourcePoint"/><mxPoint x="600.0000000000002" y="99" as="targetPoint"/></mxGeometry></mxCell><mxCell id="6" value="&lt;font style=&quot;font-size: 14px&quot;&gt;Calculate Embedding&lt;/font&gt;" style="rounded=1;whiteSpace=wrap;html=1;absoluteArcSize=1;arcSize=14;strokeWidth=2;" parent="1" vertex="1"><mxGeometry x="540" y="-379" width="120" height="50" as="geometry"/></mxCell><mxCell id="145" value="" style="edgeStyle=none;html=1;fontSize=13;fontColor=#CC0000;" edge="1" parent="1" source="8" target="144"><mxGeometry relative="1" as="geometry"/></mxCell><mxCell id="155" style="edgeStyle=none;html=1;entryX=0.5;entryY=0;entryDx=0;entryDy=0;entryPerimeter=0;fontSize=14;fontColor=#CC0000;" edge="1" parent="1" source="8" target="10"><mxGeometry relative="1" as="geometry"/></mxCell><mxCell id="8" value="&lt;span style=&quot;font-size: 14px&quot;&gt;Sentiment Analysis&lt;/span&gt;" style="rounded=1;whiteSpace=wrap;html=1;absoluteArcSize=1;arcSize=14;strokeWidth=2;" parent="1" vertex="1"><mxGeometry x="540" y="619" width="120" height="50" as="geometry"/></mxCell><mxCell id="10" value="" style="strokeWidth=2;html=1;shape=mxgraph.flowchart.database;whiteSpace=wrap;fontSize=14;" parent="1" vertex="1"><mxGeometry x="570" y="800" width="60" height="40" as="geometry"/></mxCell><mxCell id="12" value="DataFrame Not ESG" style="swimlane;fontStyle=0;childLayout=stackLayout;horizontal=1;startSize=30;horizontalStack=0;resizeParent=1;resizeParentMax=0;resizeLast=0;collapsible=1;marginBottom=0;fontSize=14;" parent="1" vertex="1"><mxGeometry x="180" y="360" width="170" height="150" as="geometry"/></mxCell><mxCell id="14" value="Tweet" style="text;strokeColor=none;fillColor=none;align=left;verticalAlign=middle;spacingLeft=4;spacingRight=4;overflow=hidden;points=[[0,0.5],[1,0.5]];portConstraint=eastwest;rotatable=0;fontSize=14;" parent="12" vertex="1"><mxGeometry y="30" width="170" height="30" as="geometry"/></mxCell><mxCell id="18" value="Date" style="text;strokeColor=none;fillColor=none;align=left;verticalAlign=middle;spacingLeft=4;spacingRight=4;overflow=hidden;points=[[0,0.5],[1,0.5]];portConstraint=eastwest;rotatable=0;fontSize=14;" parent="12" vertex="1"><mxGeometry y="60" width="170" height="30" as="geometry"/></mxCell><mxCell id="17" value="Language" style="text;strokeColor=none;fillColor=none;align=left;verticalAlign=middle;spacingLeft=4;spacingRight=4;overflow=hidden;points=[[0,0.5],[1,0.5]];portConstraint=eastwest;rotatable=0;fontSize=14;" parent="12" vertex="1"><mxGeometry y="90" width="170" height="30" as="geometry"/></mxCell><mxCell id="15" value="Embedding" style="text;strokeColor=none;fillColor=none;align=left;verticalAlign=middle;spacingLeft=4;spacingRight=4;overflow=hidden;points=[[0,0.5],[1,0.5]];portConstraint=eastwest;rotatable=0;fontSize=14;" parent="12" vertex="1"><mxGeometry y="120" width="170" height="30" as="geometry"/></mxCell><mxCell id="22" value="" style="edgeStyle=none;html=1;fontSize=14;" parent="1" source="20" target="8" edge="1"><mxGeometry relative="1" as="geometry"><Array as="points"><mxPoint x="600" y="390"/></Array></mxGeometry></mxCell><mxCell id="121" value="" style="edgeStyle=none;html=1;fontSize=13;fontColor=#CC0000;" edge="1" parent="1" source="20" target="120"><mxGeometry relative="1" as="geometry"/></mxCell><mxCell id="20" value="&lt;font style=&quot;font-size: 14px&quot;&gt;E, S, G or NOT&lt;/font&gt;" style="rounded=1;whiteSpace=wrap;html=1;absoluteArcSize=1;arcSize=14;strokeWidth=2;" parent="1" vertex="1"><mxGeometry x="540" y="106" width="120" height="50" as="geometry"/></mxCell><mxCell id="131" value="" style="edgeStyle=none;html=1;fontSize=13;fontColor=#CC0000;" edge="1" parent="1" source="23" target="130"><mxGeometry relative="1" as="geometry"/></mxCell><mxCell id="23" value="Update_DB" style="strokeWidth=2;html=1;shape=mxgraph.flowchart.start_2;whiteSpace=wrap;fontSize=14;" parent="1" vertex="1"><mxGeometry x="550" y="-1150" width="100" height="100" as="geometry"/></mxCell><mxCell id="81" value="- remove URLs&lt;br&gt;- remove # sign" style="text;html=1;align=center;verticalAlign=middle;resizable=0;points=[];autosize=1;strokeColor=none;fillColor=none;fontSize=14;" parent="1" vertex="1"><mxGeometry x="660" y="-644" width="110" height="40" as="geometry"/></mxCell><mxCell id="114" value="" style="edgeStyle=none;html=1;exitX=0.5;exitY=0;exitDx=0;exitDy=0;" edge="1" parent="1" source="122" target="113"><mxGeometry relative="1" as="geometry"><mxPoint x="1034" y="-446.5" as="sourcePoint"/></mxGeometry></mxCell><mxCell id="116" value="" style="edgeStyle=none;html=1;" edge="1" parent="1"><mxGeometry relative="1" as="geometry"><mxPoint x="1100" y="-356.02" as="sourcePoint"/><mxPoint x="1184.999999999979" y="-356.02" as="targetPoint"/></mxGeometry></mxCell><mxCell id="118" value="" style="edgeStyle=none;html=1;entryX=0.5;entryY=0;entryDx=0;entryDy=0;" edge="1" parent="1" target="117"><mxGeometry relative="1" as="geometry"><mxPoint x="1034" y="-364" as="sourcePoint"/><mxPoint x="1034.0000000000002" y="-272.7499999999998" as="targetPoint"/></mxGeometry></mxCell><mxCell id="113" value="&lt;font style=&quot;font-size: 13px&quot; color=&quot;#cc0000&quot;&gt;&lt;u&gt;&lt;b&gt;SBERT&lt;/b&gt;&lt;/u&gt;&lt;/font&gt;" style="ellipse;whiteSpace=wrap;html=1;dashed=0;" vertex="1" parent="1"><mxGeometry x="974" y="-547.75" width="120" height="60" as="geometry"/></mxCell><mxCell id="115" value="&lt;font style=&quot;font-size: 13px&quot;&gt;ESG-BERT&lt;/font&gt;" style="ellipse;whiteSpace=wrap;html=1;dashed=0;" vertex="1" parent="1"><mxGeometry x="1180" y="-385.25" width="120" height="60" as="geometry"/></mxCell><mxCell id="117" value="&lt;font style=&quot;font-size: 13px&quot;&gt;xlm-roBERTa-base&lt;/font&gt;" style="ellipse;whiteSpace=wrap;html=1;dashed=0;" vertex="1" parent="1"><mxGeometry x="974" y="-223.75" width="120" height="60" as="geometry"/></mxCell><mxCell id="124" value="" style="edgeStyle=none;html=1;fontSize=14;fontColor=#CC0000;" edge="1" parent="1" source="120" target="123"><mxGeometry relative="1" as="geometry"/></mxCell><mxCell id="126" value="" style="edgeStyle=none;html=1;fontSize=13;fontColor=#CC0000;" edge="1" parent="1" source="120" target="125"><mxGeometry relative="1" as="geometry"/></mxCell><mxCell id="128" value="" style="edgeStyle=none;html=1;fontSize=13;fontColor=#CC0000;" edge="1" parent="1" source="120" target="127"><mxGeometry relative="1" as="geometry"/></mxCell><mxCell id="120" value="&lt;b&gt;&lt;font style=&quot;font-size: 14px&quot;&gt;ESG_Filter&lt;/font&gt;&lt;/b&gt;" style="rhombus;whiteSpace=wrap;html=1;rounded=1;arcSize=14;strokeWidth=2;" vertex="1" parent="1"><mxGeometry x="970" y="81.5" width="130" height="99" as="geometry"/></mxCell><mxCell id="122" value="&lt;b&gt;&lt;font style=&quot;font-size: 14px&quot;&gt;Embedder&lt;/font&gt;&lt;/b&gt;" style="rhombus;whiteSpace=wrap;html=1;rounded=1;arcSize=14;strokeWidth=2;" vertex="1" parent="1"><mxGeometry x="964" y="-395.25" width="140" height="80" as="geometry"/></mxCell><mxCell id="123" value="&lt;font style=&quot;font-size: 13px&quot; color=&quot;#cc0000&quot;&gt;&lt;b&gt;&lt;u&gt;FinBERT&lt;/u&gt;&lt;/b&gt;&lt;/font&gt;" style="ellipse;whiteSpace=wrap;html=1;rounded=1;arcSize=14;strokeWidth=2;" vertex="1" parent="1"><mxGeometry x="975" y="-78" width="120" height="60" as="geometry"/></mxCell><mxCell id="125" value="&lt;font style=&quot;font-size: 13px&quot;&gt;Gram-Schmidt&lt;br&gt;model&lt;/font&gt;" style="ellipse;whiteSpace=wrap;html=1;rounded=1;arcSize=14;strokeWidth=2;" vertex="1" parent="1"><mxGeometry x="1185" y="101" width="120" height="60" as="geometry"/></mxCell><mxCell id="127" value="&lt;font style=&quot;font-size: 13px&quot;&gt;Mean model&lt;/font&gt;" style="ellipse;whiteSpace=wrap;html=1;rounded=1;arcSize=14;strokeWidth=2;" vertex="1" parent="1"><mxGeometry x="975" y="280" width="120" height="60" as="geometry"/></mxCell><mxCell id="129" value="" style="endArrow=classic;html=1;fontSize=13;fontColor=#CC0000;exitX=1;exitY=0.5;exitDx=0;exitDy=0;entryX=0;entryY=0.5;entryDx=0;entryDy=0;" edge="1" parent="1" source="6" target="122"><mxGeometry width="50" height="50" relative="1" as="geometry"><mxPoint x="840" y="-149" as="sourcePoint"/><mxPoint x="890" y="-199" as="targetPoint"/></mxGeometry></mxCell><mxCell id="134" value="" style="edgeStyle=none;html=1;fontSize=13;fontColor=#CC0000;" edge="1" parent="1" source="130"><mxGeometry relative="1" as="geometry"><mxPoint x="974.2002992116923" y="-768.1357960757236" as="targetPoint"/></mxGeometry></mxCell><mxCell id="130" value="Scrap new tweets" style="rounded=1;whiteSpace=wrap;html=1;fontSize=14;strokeWidth=2;" vertex="1" parent="1"><mxGeometry x="540" y="-799" width="120" height="60" as="geometry"/></mxCell><mxCell id="132" value="" style="endArrow=classic;html=1;fontSize=13;fontColor=#CC0000;exitX=0.5;exitY=1;exitDx=0;exitDy=0;entryX=0.5;entryY=0;entryDx=0;entryDy=0;" edge="1" parent="1" source="130" target="4"><mxGeometry width="50" height="50" relative="1" as="geometry"><mxPoint x="840" y="-489" as="sourcePoint"/><mxPoint x="530" y="-649" as="targetPoint"/></mxGeometry></mxCell><mxCell id="138" value="" style="edgeStyle=none;html=1;fontSize=13;fontColor=#CC0000;" edge="1" parent="1" target="137"><mxGeometry relative="1" as="geometry"><mxPoint x="1091.432969539013" y="-768.3844274311778" as="sourcePoint"/></mxGeometry></mxCell><mxCell id="140" value="" style="edgeStyle=none;html=1;fontSize=13;fontColor=#CC0000;" edge="1" parent="1" source="133" target="139"><mxGeometry relative="1" as="geometry"/></mxCell><mxCell id="133" value="&lt;b&gt;Scraper&lt;/b&gt;" style="rhombus;whiteSpace=wrap;html=1;fontSize=14;rounded=1;strokeWidth=2;" vertex="1" parent="1"><mxGeometry x="974" y="-809" width="118" height="80" as="geometry"/></mxCell><mxCell id="137" value="&lt;font style=&quot;font-size: 13px&quot;&gt;Week search&lt;/font&gt;" style="ellipse;whiteSpace=wrap;html=1;fontSize=14;rounded=1;strokeWidth=2;" vertex="1" parent="1"><mxGeometry x="1185" y="-799" width="120" height="60" as="geometry"/></mxCell><mxCell id="139" value="&lt;font style=&quot;font-size: 13px&quot;&gt;Full archive search&lt;/font&gt;" style="ellipse;whiteSpace=wrap;html=1;fontSize=14;rounded=1;strokeWidth=2;" vertex="1" parent="1"><mxGeometry x="973" y="-970" width="120" height="60" as="geometry"/></mxCell><mxCell id="147" value="" style="edgeStyle=none;html=1;fontSize=13;fontColor=#CC0000;" edge="1" parent="1" source="144" target="146"><mxGeometry relative="1" as="geometry"/></mxCell><mxCell id="149" value="" style="edgeStyle=none;html=1;fontSize=13;fontColor=#CC0000;" edge="1" parent="1" source="144" target="148"><mxGeometry relative="1" as="geometry"/></mxCell><mxCell id="144" value="Sent_model" style="rhombus;whiteSpace=wrap;html=1;rounded=1;arcSize=14;strokeWidth=2;" vertex="1" parent="1"><mxGeometry x="995" y="604" width="80" height="80" as="geometry"/></mxCell><mxCell id="146" value="&lt;font&gt;&lt;font style=&quot;font-size: 14px&quot; color=&quot;#cc0000&quot;&gt;&lt;b&gt;&lt;u&gt;BERT-Base_uncased&lt;/u&gt;&lt;/b&gt;&lt;/font&gt;&lt;br&gt;&lt;/font&gt;" style="ellipse;whiteSpace=wrap;html=1;rounded=1;arcSize=14;strokeWidth=2;" vertex="1" parent="1"><mxGeometry x="975" y="454" width="120" height="60" as="geometry"/></mxCell><mxCell id="148" value="&lt;span style=&quot;font-size: 13px&quot;&gt;RoBERTa_Twitter&lt;/span&gt;" style="ellipse;whiteSpace=wrap;html=1;rounded=1;arcSize=14;strokeWidth=2;" vertex="1" parent="1"><mxGeometry x="1180" y="609" width="120" height="60" as="geometry"/></mxCell><mxCell id="156" value="" style="strokeWidth=2;html=1;shape=mxgraph.flowchart.database;whiteSpace=wrap;fontSize=14;" vertex="1" parent="1"><mxGeometry x="230" y="315" width="60" height="40" as="geometry"/></mxCell><mxCell id="158" value="DataFrame ESG" style="swimlane;fontStyle=0;childLayout=stackLayout;horizontal=1;startSize=30;horizontalStack=0;resizeParent=1;resizeParentMax=0;resizeLast=0;collapsible=1;marginBottom=0;fontSize=14;" vertex="1" parent="1"><mxGeometry x="540" y="850" width="140" height="210" as="geometry"/></mxCell><mxCell id="159" value="Tweet" style="text;strokeColor=none;fillColor=none;align=left;verticalAlign=middle;spacingLeft=4;spacingRight=4;overflow=hidden;points=[[0,0.5],[1,0.5]];portConstraint=eastwest;rotatable=0;fontSize=14;" vertex="1" parent="158"><mxGeometry y="30" width="140" height="30" as="geometry"/></mxCell><mxCell id="160" value="Date" style="text;strokeColor=none;fillColor=none;align=left;verticalAlign=middle;spacingLeft=4;spacingRight=4;overflow=hidden;points=[[0,0.5],[1,0.5]];portConstraint=eastwest;rotatable=0;fontSize=14;" vertex="1" parent="158"><mxGeometry y="60" width="140" height="30" as="geometry"/></mxCell><mxCell id="161" value="Language" style="text;strokeColor=none;fillColor=none;align=left;verticalAlign=middle;spacingLeft=4;spacingRight=4;overflow=hidden;points=[[0,0.5],[1,0.5]];portConstraint=eastwest;rotatable=0;fontSize=14;" vertex="1" parent="158"><mxGeometry y="90" width="140" height="30" as="geometry"/></mxCell><mxCell id="162" value="ESG_Class" style="text;strokeColor=none;fillColor=none;align=left;verticalAlign=middle;spacingLeft=4;spacingRight=4;overflow=hidden;points=[[0,0.5],[1,0.5]];portConstraint=eastwest;rotatable=0;fontSize=14;" vertex="1" parent="158"><mxGeometry y="120" width="140" height="30" as="geometry"/></mxCell><mxCell id="163" value="Embedding" style="text;strokeColor=none;fillColor=none;align=left;verticalAlign=middle;spacingLeft=4;spacingRight=4;overflow=hidden;points=[[0,0.5],[1,0.5]];portConstraint=eastwest;rotatable=0;fontSize=14;" vertex="1" parent="158"><mxGeometry y="150" width="140" height="30" as="geometry"/></mxCell><mxCell id="164" value="Sentiment" style="text;strokeColor=none;fillColor=none;align=left;verticalAlign=middle;spacingLeft=4;spacingRight=4;overflow=hidden;points=[[0,0.5],[1,0.5]];portConstraint=eastwest;rotatable=0;fontSize=14;" vertex="1" parent="158"><mxGeometry y="180" width="140" height="30" as="geometry"/></mxCell><mxCell id="165" value="" style="endArrow=classic;html=1;fontSize=14;fontColor=#CC0000;" edge="1" parent="1"><mxGeometry width="50" height="50" relative="1" as="geometry"><mxPoint x="601" y="339" as="sourcePoint"/><mxPoint x="300" y="339" as="targetPoint"/></mxGeometry></mxCell><mxCell id="168" value="50 requests/month&lt;br&gt;100 tweets/request" style="text;html=1;align=center;verticalAlign=middle;resizable=0;points=[];autosize=1;strokeColor=none;fillColor=none;fontSize=14;fontColor=#000000;" vertex="1" parent="1"><mxGeometry x="1100" y="-960" width="130" height="40" as="geometry"/></mxCell><mxCell id="169" value="Unlimited requests&lt;br&gt;500 tweets/request&lt;br&gt;2M tweets/month" style="text;html=1;align=center;verticalAlign=middle;resizable=0;points=[];autosize=1;strokeColor=none;fillColor=none;fontSize=14;fontColor=#000000;" vertex="1" parent="1"><mxGeometry x="1310" y="-799" width="130" height="60" as="geometry"/></mxCell><mxCell id="170" value="+ MultiLing&lt;br&gt;+ Excellent Benchmark&lt;br&gt;+ Efficient running time&lt;br&gt;- Not Finetuned for esg tasks" style="text;html=1;align=center;verticalAlign=middle;resizable=0;points=[];autosize=1;strokeColor=none;fillColor=none;fontSize=14;fontColor=#000000;" vertex="1" parent="1"><mxGeometry x="1092" y="-552.75" width="190" height="70" as="geometry"/></mxCell><mxCell id="171" value="+ Finetuned for esg tasks&lt;br&gt;- English only&lt;br&gt;- Very slow" style="text;html=1;align=center;verticalAlign=middle;resizable=0;points=[];autosize=1;strokeColor=none;fillColor=none;fontSize=14;fontColor=#000000;" vertex="1" parent="1"><mxGeometry x="1300" y="-389" width="170" height="60" as="geometry"/></mxCell><mxCell id="172" value="+ MultiLing&lt;br&gt;+ Good performance&lt;br&gt;- Largest model, very slow&lt;br&gt;-Not finetuned for esg tasks" style="text;html=1;align=center;verticalAlign=middle;resizable=0;points=[];autosize=1;strokeColor=none;fillColor=none;fontSize=14;fontColor=#000000;" vertex="1" parent="1"><mxGeometry x="1070" y="-210" width="190" height="70" as="geometry"/></mxCell><mxCell id="173" value="+ MultiLing&lt;br&gt;+ 5-scale classification&lt;br&gt;+ Good running time&lt;br&gt;- Not concieved for twitter&amp;nbsp;" style="text;html=1;align=center;verticalAlign=middle;resizable=0;points=[];autosize=1;strokeColor=none;fillColor=none;fontSize=14;fontColor=#000000;" vertex="1" parent="1"><mxGeometry x="1092" y="449" width="180" height="70" as="geometry"/></mxCell><mxCell id="174" value="+ MultiLing&lt;br&gt;+Concieved for twitter&lt;br&gt;- 3 scale classification&lt;br&gt;- Moderate running time" style="text;html=1;align=center;verticalAlign=middle;resizable=0;points=[];autosize=1;strokeColor=none;fillColor=none;fontSize=14;fontColor=#000000;" vertex="1" parent="1"><mxGeometry x="1300" y="614" width="160" height="70" as="geometry"/></mxCell><mxCell id="175" value="+ Supervised model&lt;br&gt;- English only&lt;br&gt;- Slower performance" style="text;html=1;align=center;verticalAlign=middle;resizable=0;points=[];autosize=1;strokeColor=none;fillColor=none;fontSize=14;fontColor=#000000;" vertex="1" parent="1"><mxGeometry x="1090" y="-78" width="150" height="60" as="geometry"/></mxCell><mxCell id="176" value="+ Efficient running time&lt;br&gt;- Need to define threshhold&lt;br&gt;- Semi-Supervised&lt;br&gt;- Language depends on dictionnary&lt;br&gt;- Precision depends on dictionnary" style="text;html=1;align=center;verticalAlign=middle;resizable=0;points=[];autosize=1;strokeColor=none;fillColor=none;fontSize=14;fontColor=#000000;" vertex="1" parent="1"><mxGeometry x="1300" y="90.5" width="230" height="90" as="geometry"/></mxCell><mxCell id="178" value="+ Efficient running time&lt;br&gt;- Need to define threshhold&lt;br&gt;- Semi-Supervised&lt;br&gt;- Language depends on dictionnary&lt;br&gt;- Precision depends on dictionnary" style="text;html=1;align=center;verticalAlign=middle;resizable=0;points=[];autosize=1;strokeColor=none;fillColor=none;fontSize=14;fontColor=#000000;" vertex="1" parent="1"><mxGeometry x="1080" y="270" width="230" height="90" as="geometry"/></mxCell></root></mxGraphModel></diagram></mxfile>